<?xml version="1.0" encoding="UTF-8"?>
<svg id="Layer_2" data-name="Layer 2" xmlns="http://www.w3.org/2000/svg" viewBox="0 0 612 792">
  <defs>
    <style>
      .cls-1 {
        fill: none;
      }

      .cls-1, .cls-2, .cls-3 {
        stroke: #ffffff;
        stroke-miterlimit: 10;
      }

      .cls-2 {
        fill: #ffffff;
      }

      .cls-3 {
        fill: #a7a9ac;
        stroke-width: 1.23px;
      }
    </style>
  </defs>
  <path class="cls-2" d="m88.62,445.68c-3.37,15.57,5.12,28.08,7.66,29.11,1.13.46,1.96.55,1.96.55,1.59.17,2.48-.44,4.67.47,7.06,2.91,5.13,12.93,13.28,26.04,3.75,6.02,8.94,13.76,12.26,12.77,2.77-.83,2.41-7.17,5.1-7.66.31-.06.62-.03.92.06,1.94.59,3.84,3.83,5.21,5.81,9.38,13.57,28.49,18.52,36.34,20.55,5.13,1.33,7.64,1.1,12.64,3.45,2.62,1.23,4.17,2.35,6.52,2.01,3.39-.49,6.51-3.76,6.32-6.32-.16-2.1-2.87-3.46-4.12-4.12,0,0-5.82-3.07-17.36-14.29-9.46-9.2-11.8-27.8-5.11-37.28,2.18-3.08,5.54-5.29,12.26-9.7,7.45-4.89,12.76-6.78,13.79-11.75.54-2.62-.58-3.82.51-6.12.56-1.19,2.32-3.99,9.06-5.37,12.7-2.59,30.11,2.54,48.64,4.22,11.61,1.05,18.08.23,25.71-.1-.23,1.72.55,3.93,1.35,6.69,2.66,9.08,4.17,19.08,4.26,26.21.08,6.5-1.07,7.82,0,13.11.66,3.29,1.85,9.18,6.47,11.41,3.05,1.47,7.35,1.22,8.17-.52.95-2.01-3.48-4.6-6.64-9.7-3.48-5.61-3.39-11.64-3.06-23.49.36-13.42,2.31-20.01,1.1-23.63,4.64.24,8.24.43,11.92-1.52.71-.37,1.44-.83,2.29-.63,2.78.64,3.02,7.3,3.96,16.72,2.46,24.52,5.28,23.86,3.7,32.59-.75,4.16-2.11,8.27,0,10.18,1.64,1.47,3.64.09,9.58.01,7.52-.11,11.56,2,12.89,0,.54-.82.33-1.83,0-3.33-.75-3.5-2.85-5.82-3.57-6.64-4.2-4.76-9.65-10.93-8.94-16.6.18-1.4.67-2.3,1.02-5.36.24-2.09.25-3.74.26-5.62,0-2.63-.12-4.84-.26-6.63-.35-4.57-.9-7.9-1.02-8.69-1.11-7.58,3.84-16.62,5.36-19.4,11.81-21.56,32.99-19.56,43.15-40.34,1.62-3.31,3.56-8.43,8.94-12.26,2.6-1.85,6-3.38,16.34-5.1,8.62-1.43,15.08-1.83,18.13-2.04,25.29-1.79,21.85-5.7,43.15-7.41,2.28-.18,14.8-1.14,16.34-6.38.33-1.14.31-3.04,1.78-4.09,1.53-1.09,3.08-.11,5.11-1.02.67-.3,1.95-1.05,3.32-3.83,1.13-2.28,2.05-4.52,2.82-6.69.18-.51.35-1.02.51-1.52-.86,1.91-2.18,3.28-4.01,3.28-3.67,0-6.9-1.54-8.26-6.05-1.27-4.23,9.87-12.34,13.53-12.34,1.1,0,1.55.38,1.61,1.02.03-.34.06-.67.08-.98h0c.14-2.07.1-3.27.1-3.27-.22-6.81-.56-16.83-7.4-26.64-4.82-6.9-10.4-10.17-16.85-13.96-13.3-7.8-25.87-9.34-28.1-6.34-.23.31-.96,1.49-1.35,1.35-.45-.16-.08-2.02,0-3.01.44-5.61-6.35-12.96-10.55-12-.75.17-1.32.71-2.47,1.79-1.07,1-3.29,3.33-5.19,7.92-1.56,3.75-1.21,4.93-2.62,5.78-1.34.8-2.9.51-5.47,0-2.47-.49-3.71-.74-6.04-1.87-8.64-4.19-32.68,4.6-32.68,4.6-18.08,4.22-31.51,7.36-46.47,16.34-8.23,4.93-17.47,11.96-29.11,10.21-1.89-.29-3.64-.87-7.15-2.04-13.69-4.58-23.5-10.36-25.02-11.24-16.2-9.39-41.02-13.91-51.57-15.83-10.3-1.87-31.65-4.97-58.72-2.55-21.43,1.92-33.41,2.99-48,10.21-5.95,2.95-34.8,17.23-45.28,41.36-3.26,7.52-5.98,18.83-14.98,22.64-2.66,1.13-8.49,2.71-10.04,7.32-.2.58-.79,2.35-.17,4.26,2.15,6.6,15.66,4.57,17.87,10.89,1.15,3.3-1.82,5.87.34,9.36.93,1.51,2.36,2.43,2.89,4.75.39,1.67.08,3.04,0,3.42-.25,1.2-.78,21.74,15.66,35.58,5.89,4.96,10.95,6.52,11.91,11.99.45,2.54-.39,3.61-1.18,7.24Zm45.95,53.62c-2.55,1.01-8.2-4.88-10.77-10.77-2.61-5.99-.49-8.45-3.52-12.72-3.38-4.77-7.12-3.29-10.22-8.17-1.23-1.95-.8-2.46-2.55-11.24-1.75-8.78-2.47-9.76-1.53-11.23,2.49-3.88,12.09-3.99,16.85.51,1.52,1.44,2.02,2.85,3.57,7.15,5.59,15.4,5.13,13.59,5.62,15.32,2.51,8.91,6.77,29.47,2.55,31.15Zm302.13-224.94c-.69,2.51-8.7,3.25-9.61,1.28-.31-.65.44-1.01,2.97-5.62.87-1.57,1.15-2.21,1.79-2.3,1.21-.17,2.44,1.8,3.51,3.51,1.02,1.63,1.53,2.45,1.34,3.13Zm9.86,36.66c-.28.09-.83.23-1.52.19-1.96-.09-4.68-1.54-4.68-3.57s2.1-3.58,4.68-3.58,4.68,1.6,4.68,3.58c0,1.61-1.74,2.94-3.16,3.38Z"/>
  <path class="cls-1" d="m202.66,447.85c2.1-5.08,4.03-11.51,4.6-19.06,1.95-25.79-13.33-44.91-18.04-50.38"/>
  <line class="cls-1" x1="133.81" y1="499.41" x2="134.47" y2="507.03"/>
  <path class="cls-3" d="m496.08,329.46c-.37,1.61-1.51,3.97-1.51,6.43,0,1.09-.1,2.23-.3,3.35,0,.02,0,.04-.01.06-.2,1.12-.51,2.21-.94,3.16,0,.01-.01.02-.01.03-.86,1.91-2.18,3.28-4.01,3.28-3.67,0-6.9-1.54-8.26-6.05-1.27-4.23,9.87-12.34,13.53-12.34,1.1,0,1.55.38,1.61,1.02.04.3,0,.65-.1,1.06Z"/>
</svg>