<?xml version="1.0" encoding="UTF-8"?>
<svg id="Layer_2" data-name="Layer 2" xmlns="http://www.w3.org/2000/svg" viewBox="0 0 304.02 260.77">
  <defs>
    <style>
      .cls-1 {
        fill: #f5f5f5;
      }

      .cls-2 {
        fill: #cdc9c9;
      }

      .cls-3 {
        fill: #cdc9c9;
      }

      .cls-1, .cls-2, .cls-3 {
        stroke: #fff;
        stroke-width="5";
      }
    </style>
  </defs>
  <g id="IEFP">
    <g>
      <path class="cls-1" d="m138.3,136.69c-.61-13.19-1.64-18.96-2.05-21.11-1.77-9.32-3.68-12.98-5.19-15.32-2.99-4.64-7.18-8.36-8.42-9.45-2.24-1.96-4.08-3.23-4.68-3.66-5.56-3.87-26.26-18.91-55.75-40.42-2-1.34-5.39-3.21-9.96-4.09-1.14-.22-5.13-.9-10.21,0-4.13.74-7.03,2.18-8.94,3.15-2.22,1.13-5.51,2.84-8.76,6.22-4.16,4.31-5.83,8.85-6.3,10.21-2.06,6.01-1.27,10.78,0,18.47.45,2.69.99,4.79,2.38,6.98,1.67,2.61,3.81,4.17,5.2,5.02.12.09,2.93,2.2,3.06,2.29,23.33,17.5,46.68,34.98,70.04,52.43,0,0,0,0,0,0h0c5.87,4.29,10.69,7.64,13.96,9.87,6.68,4.56,9.1,5.99,12.6,9.53,3.22,3.26,4.84,5.77,7.49,9.87,1.53,2.37,2.21,3.7,2.55,5.45.06.29.18,1.05.15,2.22.49-1.27,1.03-3.26,1.81-6.13.39-1.43.68-2.68.86-4.17.24-2,.18-3.52.17-4-.19-6.08.82-15.34,0-33.36Z"/>
      <path class="cls-2" d="m132.77,176.68c-2.65-4.11-4.27-6.61-7.49-9.87-3.5-3.54-5.92-4.97-12.6-9.53-3.27-2.23-8.09-5.58-13.96-9.87h0S2.41,219.31,2.41,219.31c-1.52,1.13-2.41,2.91-2.41,4.81v2.7c0,1.97.97,3.82,2.59,4.94l40.47,27.96c1,.69,2.19,1.06,3.41,1.06h3.56c1.34,0,2.64-.45,3.69-1.27l67.99-53.03c1.42-1.12,3.46-2.87,5.62-5.28,2.24-2.51,5.19-5.9,6.98-11.06.87-2.5,1.13-4.42,1.17-5.78.04-1.17-.09-1.93-.15-2.22-.34-1.74-1.02-3.07-2.55-5.45Z"/>
      <path class="cls-1" d="m171.26,176.68c2.65-4.11,4.27-6.61,7.49-9.87,3.5-3.54,5.92-4.97,12.6-9.53,3.27-2.23,8.09-5.58,13.96-9.87h0s0,0,0,0c23.36-17.45,46.71-34.93,70.04-52.43.13-.09,2.94-2.2,3.06-2.29,1.39-.85,3.53-2.41,5.2-5.02,1.39-2.19,1.93-4.29,2.38-6.98,1.27-7.69,2.06-12.46,0-18.47-.47-1.36-2.14-5.9-6.3-10.21-3.25-3.38-6.54-5.09-8.76-6.22-1.91-.97-4.81-2.41-8.94-3.15-5.08-.9-9.07-.22-10.21,0-4.57.88-7.96,2.75-9.96,4.09-29.49,21.51-50.19,36.55-55.75,40.42-.6.43-2.44,1.7-4.68,3.66-1.24,1.09-5.43,4.81-8.42,9.45-1.51,2.34-3.42,6-5.19,15.32-.41,2.15-1.44,7.92-2.05,21.11-.82,18.02.19,27.28,0,33.36-.01.48-.07,2,.17,4,.18,1.49.47,2.74.86,4.17.78,2.87,1.32,4.86,1.81,6.13-.04-1.17.09-1.93.15-2.22.34-1.74,1.02-3.07,2.55-5.45Z"/>
      <path class="cls-2" d="m205.3,147.41h0c-5.87,4.29-10.69,7.64-13.96,9.87-6.68,4.56-9.1,5.99-12.6,9.53-3.22,3.26-4.84,5.77-7.49,9.87-1.53,2.37-2.21,3.7-2.55,5.45-.06.29-.18,1.05-.15,2.22.04,1.36.3,3.28,1.17,5.78,1.79,5.16,4.73,8.56,6.98,11.06,2.16,2.41,4.19,4.15,5.62,5.28l68.26,53.24c.88.69,1.96,1.06,3.08,1.06h4.21c1.02,0,2.01-.31,2.84-.89l41.15-28.43c1.35-.93,2.16-2.47,2.16-4.11v-3.72c0-1.58-.74-3.06-2.01-4.01l-96.71-72.2Z"/>
      <circle class="cls-3" cx="152.28" cy="37.6" r="37.6" transform="translate(-4.06 24.88) rotate(-9.22)"/>
    </g>
  </g>
</svg>