<svg id="Ebene_1" data-name="Ebene 1" xmlns="http://www.w3.org/2000/svg" viewBox="0 0 414.62 148.83"><defs><style>.cls-1,.cls-3{fill:#0066B3;}.cls-1,.cls-2{fill-rule:evenodd;}.cls-2{fill:#ED1C24;}</style></defs><title>Logo_SBC_CMYK</title><path class="cls-1" d="M108.06,151.83c-2.06,3.51-6,4.51-9.85,4.51h-69v14h71c22.38,0,33.35-24.92,16.95-39.53-5.25-4.68-11.89-6.29-18.8-6.29H55.83c-7.52,0-13.91-6.18-9.69-13.38,2.06-3.51,6-4.51,9.85-4.51h69v-14H54c-22.38,0-33.35,24.92-16.95,39.53,5.25,4.68,11.89,6.29,18.8,6.29H98.37c7.52,0,13.91,6.18,9.69,13.38m33.45-88.57v43.25h68.77c3,0,7.24.23,9.27,2.84,1.8,2.31,1.88,6.62,1.88,9.43v25.45c0,2.83-.07,7.3-1.95,9.59-2.05,2.49-6.23,2.68-9.2,2.68h-43.1c-3.5,0-7.94-.53-9.87-3.91-1.29-2.27-1.28-7.39-1.28-10,0,0,0-17.34,0-18.06H141.51v19.1l0,0.81c0.22,6.32,1.63,12.78,5.6,17.85,4.88,6.25,12.41,8.05,20,8.05h43.1c7.62,0,15.1-1.81,20.08-7.95,4.21-5.18,5.59-11.66,5.59-18.2V118.94c0-6.54-1.38-13-5.59-18.21-5-6.19-12.38-8.11-20.08-8.11H156V63.25H141.51Zm207.13,83H334.19c-0.11,2.34-.4,4.91-1.22,6.34-1.93,3.38-6.37,3.91-9.87,3.91H280c-3,0-7.15-.19-9.2-2.68-1.88-2.28-1.95-6.76-1.95-9.59V118.78c0-2.81.09-7.12,1.88-9.43,2-2.61,6.23-2.84,9.27-2.84h43.1c3.52,0,8,.52,9.91,4,0.79,1.46,1.08,4,1.19,6.27h14.45c-0.42-5.7-1.94-11.34-5.51-15.91-4.94-6.31-12.33-8.21-20-8.21H280c-7.71,0-15,1.92-20.08,8.11-4.21,5.18-5.59,11.66-5.59,18.2v25.29c0,6.54,1.38,13,5.59,18.2,5,6.13,12.46,7.95,20.08,7.95h43.1c7.63,0,15.15-1.81,20-8.06,3.59-4.59,5.1-10.33,5.51-16.07" transform="translate(-28.73 -63.25)"/><path class="cls-2" d="M414.34,116.75H443.1l-28.76,28.76V116.75Zm-24-24.13H361.56l28.76-28.77V92.62Zm24,0H443.1L414.34,63.86V92.62Zm-24,24.13H361.56l28.76,28.76V116.75Z" transform="translate(-28.73 -63.25)"/><path class="cls-3" d="M32.07,193.57c0,3,1.62,3.48,5.16,4.49,4.09,1.15,6.58,2.77,6.58,7.1,0,5.08-3.09,6.93-8.61,6.93a29.83,29.83,0,0,1-6.37-.62l0.33-2.71a44.91,44.91,0,0,0,5.94.48c3.09,0,5.25-.68,5.25-3.95,0-2.86-2.09-3.52-4.87-4.37-4.27-1.29-6.76-2.47-6.76-6.88,0-5,3-6.58,8.28-6.58a34.82,34.82,0,0,1,6.31.61L43,190.7a34.8,34.8,0,0,0-4.91-.43C35.29,190.26,32.07,190.54,32.07,193.57Z" transform="translate(-28.73 -63.25)"/><path class="cls-3" d="M47.13,211.83l7.8-22.08c0.55-1.58,1.5-2.31,2.79-2.31s2.24,0.74,2.78,2.31l7.68,22.08H64.63l-2.26-6.69H52.8l-2.24,6.69H47.13Zm14.36-9.3-3.92-11.65-3.9,11.65h7.82Z" transform="translate(-28.73 -63.25)"/><path class="cls-3" d="M72.92,187.69h3.35v24.14H72.92V187.69Z" transform="translate(-28.73 -63.25)"/><path class="cls-3" d="M81,211.83l7.8-22.08c0.55-1.58,1.5-2.31,2.79-2.31s2.24,0.74,2.78,2.31l7.68,22.08H98.51l-2.26-6.69H86.69l-2.24,6.69H81Zm14.36-9.3-3.92-11.65-3.9,11.65h7.82Z" transform="translate(-28.73 -63.25)"/><path class="cls-3" d="M132.53,193.65c0,2.8-1.13,4.93-3.53,5.83,2.24,0.75,3.92,2.39,3.92,6.23,0,5.36-4.33,6.37-9.33,6.37a46.19,46.19,0,0,1-7.88-.61V188a48.12,48.12,0,0,1,7.46-.58C127.68,187.44,132.53,188.26,132.53,193.65Zm-9.2,4.6c3.54,0,5.94-.61,5.94-4.15s-2.52-4-6.1-4a34.67,34.67,0,0,0-4.13.27v7.86h4.3Zm-4.3,2.47v8.39a33.37,33.37,0,0,0,4.41.28c3.67,0,6.14-.53,6.14-4.27s-2.68-4.4-6.26-4.4H119Z" transform="translate(-28.73 -63.25)"/><path class="cls-3" d="M156.38,203.94c0,6.44-3.45,8.14-8.73,8.14s-8.73-1.7-8.73-8.14V187.69h3.3v16.52c0,3.48,1.5,5,5.43,5s5.43-1.55,5.43-5V187.69h3.3v16.25Z" transform="translate(-28.73 -63.25)"/><path class="cls-3" d="M163.33,211.83V188a46.5,46.5,0,0,1,7.45-.6c5.14,0,9.4,1,9.4,7.29,0,4.57-2.14,6.47-5.45,7.13l5.72,10h-3.9l-5.32-9.66h-0.17c-1.26,0-3.24-.09-4.38-0.16v9.81h-3.34Zm3.34-12.54a34.22,34.22,0,0,0,4.1.19c3.85,0,6.07-1,6.07-4.76,0-3.33-1.58-4.63-5.95-4.63a33,33,0,0,0-4.23.29v8.91Z" transform="translate(-28.73 -63.25)"/><path class="cls-3" d="M195.77,198.91h7.54v9c0,3.94-3.34,4.2-7.88,4.2-7.76,0-9.69-3.75-9.69-12.32s1.93-12.32,9.69-12.32a38.69,38.69,0,0,1,7.21.6l-0.29,2.63a45.74,45.74,0,0,0-5.94-.41c-6.91,0-7.26,3.63-7.26,9.49s0.36,9.49,7.26,9.49c3.4,0,3.59-1,3.59-2.58v-5.12h-4.24v-2.64Z" transform="translate(-28.73 -63.25)"/><path class="cls-3" d="M223.53,190.38h-6.18c-3.91,0-4.56.75-4.56,4.21v3.61h10.27v2.68H212.79v4.06c0,3.47.66,4.2,4.56,4.2h6.18v2.61c-1.83.08-4.32,0.15-6.07,0.15-4.14,0-8-.22-8-5.5V193.14c0-5.28,3.86-5.51,8-5.51,1.59,0,4.22.07,6.07,0.16v2.6Z" transform="translate(-28.73 -63.25)"/><path class="cls-3" d="M232.33,193.57c0,3,1.62,3.48,5.16,4.49,4.09,1.15,6.58,2.77,6.58,7.1,0,5.08-3.09,6.93-8.61,6.93a29.82,29.82,0,0,1-6.37-.62l0.33-2.71a44.91,44.91,0,0,0,5.94.48c3.09,0,5.25-.68,5.25-3.95,0-2.86-2.09-3.52-4.87-4.37-4.27-1.29-6.76-2.47-6.76-6.88,0-5,3-6.58,8.28-6.58a34.82,34.82,0,0,1,6.31.61l-0.31,2.64a34.8,34.8,0,0,0-4.91-.43C235.55,190.26,232.33,190.54,232.33,193.57Z" transform="translate(-28.73 -63.25)"/><path class="cls-3" d="M252.11,193.57c0,3,1.62,3.48,5.16,4.49,4.09,1.15,6.58,2.77,6.58,7.1,0,5.08-3.09,6.93-8.61,6.93a29.84,29.84,0,0,1-6.37-.62l0.33-2.71a44.88,44.88,0,0,0,5.94.48c3.09,0,5.25-.68,5.25-3.95,0-2.86-2.09-3.52-4.87-4.37-4.27-1.29-6.76-2.47-6.76-6.88,0-5,3-6.58,8.28-6.58a34.8,34.8,0,0,1,6.31.61L263,190.7a34.8,34.8,0,0,0-4.91-.43C255.33,190.26,252.11,190.54,252.11,193.57Z" transform="translate(-28.73 -63.25)"/><path class="cls-3" d="M294.3,211.48a26.62,26.62,0,0,1-5.7.6c-7.79,0-9.7-3.75-9.7-12.32s1.92-12.32,9.7-12.32a26.7,26.7,0,0,1,5.7.59L294,190.65a29.1,29.1,0,0,0-4.42-.38c-6.9,0-7.25,3.65-7.25,9.49s0.41,9.49,7.25,9.49a28,28,0,0,0,4.43-.38Z" transform="translate(-28.73 -63.25)"/><path class="cls-3" d="M298.64,199.76c0-8.75,2.07-12.32,9.35-12.32s9.34,3.57,9.34,12.32-2.06,12.32-9.34,12.32S298.64,208.51,298.64,199.76Zm15.3,0c0-5.62-.21-9.53-6-9.53s-5.95,3.92-5.95,9.53,0.18,9.53,5.95,9.53S313.94,205.37,313.94,199.76Z" transform="translate(-28.73 -63.25)"/><path class="cls-3" d="M339,207.52V187.69h3v22c0,1.7-.79,2.44-2.05,2.44s-2.08-.64-3-2.2L326.69,192v19.87h-3v-22c0-1.71.81-2.43,2.06-2.43s2.07,0.64,3,2.18Z" transform="translate(-28.73 -63.25)"/><path class="cls-3" d="M362.18,190.42h-6.32v21.42h-3.35V190.42h-6.33v-2.72h16v2.72Z" transform="translate(-28.73 -63.25)"/><path class="cls-3" d="M366.32,211.83V188a46.5,46.5,0,0,1,7.45-.6c5.14,0,9.4,1,9.4,7.29,0,4.57-2.14,6.47-5.45,7.13l5.72,10h-3.9l-5.32-9.66H374c-1.26,0-3.24-.09-4.38-0.16v9.81h-3.34Zm3.34-12.54a34.23,34.23,0,0,0,4.1.19c3.85,0,6.07-1,6.07-4.76,0-3.33-1.58-4.63-6-4.63a33,33,0,0,0-4.23.29v8.91Z" transform="translate(-28.73 -63.25)"/><path class="cls-3" d="M388,199.76c0-8.75,2.07-12.32,9.35-12.32s9.35,3.57,9.35,12.32-2.06,12.32-9.35,12.32S388,208.51,388,199.76Zm15.3,0c0-5.62-.2-9.53-5.95-9.53s-6,3.92-6,9.53,0.19,9.53,6,9.53S403.28,205.37,403.28,199.76Z" transform="translate(-28.73 -63.25)"/><path class="cls-3" d="M426,211.77c-1.84.07-4.05,0.12-5.66,0.12-4.13,0-8-.22-8-5.5v-18.7h3.35v17.25c0,3.45.65,4.2,4.55,4.2H426v2.63Z" transform="translate(-28.73 -63.25)"/><path class="cls-3" d="M431.6,193.57c0,3,1.62,3.48,5.16,4.49,4.09,1.15,6.58,2.77,6.58,7.1,0,5.08-3.09,6.93-8.61,6.93a29.82,29.82,0,0,1-6.37-.62l0.33-2.71a44.89,44.89,0,0,0,5.94.48c3.09,0,5.25-.68,5.25-3.95,0-2.86-2.09-3.52-4.87-4.37-4.27-1.29-6.76-2.47-6.76-6.88,0-5,3-6.58,8.28-6.58a34.8,34.8,0,0,1,6.31.61l-0.31,2.64a34.88,34.88,0,0,0-4.91-.43C434.83,190.26,431.6,190.54,431.6,193.57Z" transform="translate(-28.73 -63.25)"/></svg>
