<?xml version="1.0" encoding="UTF-8"?>
<svg id="Layer_2" data-name="Layer 2" xmlns="http://www.w3.org/2000/svg" viewBox="0 0 159.25 192.61">
  <defs>
    <style>
      .cls-1 {
        <!-- fill: #0095db; -->
        fill: #fff;
        fill-rule: evenodd;
      }
    </style>
  </defs>
  <g id="Layer_1-2" data-name="Layer 1">
    <path class="cls-1" d="m0,0v80.83c0,72.79,79.48,111.78,79.48,111.78,0,0,79.77-38.99,79.77-111.78V0H0Zm43.62,50.82h14.31l.02,59.82h-14.34v-59.82Zm43.05-15.87v91.62c-.01,11.87-9.63,18.02-21.5,18.02s-21.57-5.18-21.57-15.27h.01c0-3.96,3.21-7.16,7.17-7.16,1.97,0,3.77.8,5.07,2.1,1.3,1.29,2.1,3.08,2.1,5.06,0,7.33.58,12.29,7.22,12.29,7.15,0,7.15-4.98,7.15-15.04V34.95c0-11.87,9.62-18.02,21.49-18.02s21.57,5.18,21.57,15.27h-.01c0,3.96-3.21,7.16-7.17,7.16s-7.16-3.2-7.16-7.16h-.01c0-7.32-.58-12.29-7.22-12.29-7.14,0-7.14,4.98-7.14,15.04Zm35.35,25.87h-6.64v49.85h-14.35v-49.85h-6.61v-10h27.6v10Z"/>
  </g>
</svg>